<svg xmlns="http://www.w3.org/2000/svg" width="300.956" height="307.467" viewBox="0 0 300.956 307.467"><defs><style>.a{fill:#f7f7f7;}.b{fill:#e2e2e2;}.c{opacity:0.5;}.d{fill:#095ba9;}.e{opacity:0.3;}.f{opacity:0.53;}.g{fill:#deab52;}.h{fill:#d3d3d3;}.i{fill:#b2b2b2;}.j,.l,.r,.t,.w{fill:none;stroke-miterlimit:10;}.j{stroke:#d3d3d3;}.k{fill:#f4d242;}.l{stroke:#fff;stroke-width:2px;}.m{fill:#192d33;}.n{fill:#122023;}.o{fill:#f74d57;opacity:0.23;}.p{fill:#002c56;opacity:0.42;}.q{fill:#e5e5e5;}.r{stroke:#c1c1c1;}.s{fill:#f7b998;}.t{stroke:#c66f58;}.t,.w{stroke-linecap:round;}.u{fill:#1639d0;}.v{fill:#193084;opacity:0.48;}.w{stroke:#192d33;}.x{fill:#fff;}.y{fill:#eaa178;}.z{fill:#ced9ea;}.aa{fill:#f4f4f4;}.ab{fill:#cc663a;}.ac{fill:#af593a;}</style></defs><g transform="translate(-46.133 -64.089)"><g transform="translate(46.133 64.089)"><path class="a" d="M343.6,299.98c-.579,1.332-1.193,2.689-1.851,4.056-29.194,60.836-141.8,52.275-190.438,27.049a279.768,279.768,0,0,1-48.677-31.65c-39.148-32.256-71.88-81.962-40.117-150.27,38.032-81.79,138.112-101.238,185.864-70.219s23.565,91.665,48.271,115.386C320.8,217.525,368.733,242.066,343.6,299.98Z" transform="translate(-49.732 -64.974)"/><path class="b" d="M360.025,368.534c-.579,1.332-1.193,2.689-1.851,4.056-29.194,60.836-141.8,52.275-190.438,27.049a279.766,279.766,0,0,1-48.677-31.65H131.8v-13.62h21.93v18.826l12.4,12.4v-9.911h15.73v23.66h79.5V378.167l14.035-14.035v35.213h21.454v-14.3h19.8v16.024l6.944-4.471V383.944h10.662v-15.41Z" transform="translate(-66.155 -133.528)"/><g class="c" transform="translate(67.102 40.483)"><circle class="d" cx="5.086" cy="5.086" r="5.086"/></g><g class="e" transform="translate(252.35 215.758)"><circle class="d" cx="5.086" cy="5.086" r="5.086"/></g><g class="f" transform="translate(157.27 24.318)"><circle class="g" cx="7.568" cy="7.568" r="7.568"/></g></g><g transform="translate(34.537 61.24)"><g transform="translate(38.18 24.646)"><path class="b" d="M177.647,93.537l-73.1,64.062h146.2Z" transform="translate(-89.301 -93.537)"/><path class="h" d="M181.934,104.11l-59.291,51.96H241.224Z" transform="translate(-93.588 -96.042)"/><rect class="b" width="176.691" height="13.075" rx="6.357" transform="translate(0 64.062)"/><g transform="translate(8.242 77.137)"><rect class="b" width="25.603" height="8.226"/><rect class="b" width="11.971" height="183.207" transform="translate(6.816 8.226)"/><rect class="b" width="25.603" height="8.226" transform="translate(44.868)"/><rect class="b" width="11.971" height="183.207" transform="translate(51.684 8.226)"/><rect class="b" width="25.603" height="8.226" transform="translate(89.736)"/><rect class="b" width="11.971" height="183.207" transform="translate(96.552 8.226)"/><rect class="b" width="25.603" height="8.226" transform="translate(134.605)"/><rect class="b" width="11.971" height="183.207" transform="translate(141.42 8.226)"/></g><g transform="translate(8.242 77.137)"><rect class="b" width="25.603" height="8.226" transform="translate(160.207 191.433) rotate(180)"/><rect class="b" width="11.971" height="183.207" transform="translate(153.392 183.207) rotate(180)"/><rect class="b" width="25.603" height="8.226" transform="translate(115.339 191.433) rotate(180)"/><rect class="b" width="11.971" height="183.207" transform="translate(108.523 183.207) rotate(180)"/><rect class="b" width="25.603" height="8.226" transform="translate(70.471 191.433) rotate(180)"/><rect class="b" width="11.971" height="183.207" transform="translate(63.655 183.207) rotate(180)"/><rect class="b" width="25.603" height="8.226" transform="translate(25.603 191.433) rotate(180)"/><rect class="b" width="11.971" height="183.207" transform="translate(18.787 183.207) rotate(180)"/></g></g><g transform="translate(15.145 69.689)"><rect class="i" width="8.106" height="221.135" transform="translate(140.888 15.304)"/><rect class="i" width="139.406" height="4.09" transform="translate(81.34 13.259)"/><path class="j" d="M199.084,256.325,143.612,175.3,87.683,256.325" transform="translate(-62.272 -157.948)"/><path class="j" d="M184.348,256.325,150.158,175.3l-34.471,81.028" transform="translate(-68.906 -157.948)"/><path class="k" d="M120.109,236.685l-19.984,4.7S59.2,232.9,54.715,197.567a36.517,36.517,0,0,1,.779-13.962c.061-.238.127-.481.2-.719s.147-.5.217-.744a.131.131,0,0,1,.01-.04c5.987-19.094,27.667-26.862,34.129-28.385,7.991-1.877,39.6-5.036,51.177,23.5a40.11,40.11,0,0,1,2.617,9.787v.005C147.542,214.692,120.109,236.685,120.109,236.685Z" transform="translate(-54.384 -152.562)"/><path class="l" d="M116.371,255.677c-6.58-8.622-18.05-24.483-12.426-28.607s10.542,4.874,7.9,7.772-7.933-9.943-1.857-13.871,11.335,4.289,9.08,8.846-8.378-6.465-1.309-11.088,10.144,7.959,7.308,11.779-5.907-9.239,2.314-10.761,2.33,28.605-.055,33.355" transform="translate(-65.768 -167.998)"/><g transform="translate(43.637 84.116)"><path class="m" d="M0,0H20.582a0,0,0,0,1,0,0V14.914A10.291,10.291,0,0,1,10.291,25.2h0A10.291,10.291,0,0,1,0,14.914V0A0,0,0,0,1,0,0Z" transform="translate(2.079 4.712) rotate(-13.236)"/><rect class="n" width="26.692" height="4.311" rx="2.155" transform="translate(1.795 16.849) rotate(-13.236)"/><path class="n" d="M2.155,0H24.537a2.155,2.155,0,0,1,2.155,2.155v0a2.155,2.155,0,0,1-2.155,2.155H2.155A2.155,2.155,0,0,1,0,2.156v0A2.155,2.155,0,0,1,2.155,0Z" transform="translate(0 9.219) rotate(-13.236)"/></g><path class="o" d="M120.109,246.322l-19.984,4.7S59.2,242.536,54.715,207.2a36.517,36.517,0,0,1,.779-13.962c-7.16,28.092,49.357,47.246,56.011,34.042,6.5-12.9,28.224-14.175,32.338-30.637C147.542,224.329,120.109,246.322,120.109,246.322Z" transform="translate(-54.384 -162.199)"/><path class="h" d="M87.683,281.478h111.4s-6.663,45.339-55.473,45.339S87.683,281.478,87.683,281.478Z" transform="translate(-62.272 -183.101)"/><path class="j" d="M270.662,256.325,326.135,175.3l55.929,81.028" transform="translate(-105.618 -157.948)"/><path class="j" d="M298.666,256.325l34.19-81.028,34.471,81.028" transform="translate(-112.252 -157.948)"/><g transform="translate(186.414 9.424)"><path class="d" d="M328.2,167.258l56.5,10.363a8.581,8.581,0,0,1,6.849,10.209l-15.841,75.228a8.582,8.582,0,0,1-9.714,6.712l-55.948-8.687Z" transform="translate(-301.362 -165.468)"/><path class="p" d="M385.874,247.462c-7.281,8.983-47.555,22.784-51.38,21.733s1.238-16.473,1.238-16.473l-13.523,25.141,58.2-4.443Z" transform="translate(-304.243 -184.467)"/><path class="q" d="M325.506,166.7l-10.259-1.79L298.666,258.48l8.684,2.047Z" transform="translate(-298.666 -164.912)"/><line class="r" x1="16.191" y2="74.95" transform="translate(7.218 8.742)"/><line class="r" x1="15.944" y2="78.984" transform="translate(3.04 9.97)"/></g><path class="h" d="M382.063,281.478h-111.4s6.664,45.339,55.473,45.339S382.063,281.478,382.063,281.478Z" transform="translate(-105.618 -183.101)"/><circle class="i" cx="7.862" cy="7.862" r="7.862" transform="translate(137.115 7.442)"/><circle class="h" cx="4.09" cy="4.09" r="4.09" transform="translate(140.888 11.215)"/></g><g transform="translate(74.037 145.47)"><path class="s" d="M244.492,297.116c1.919-7,10.845-22.471,11.123-23.66s-1.952.773-1.952.773,2-2.521,1.976-3.358-11.148,6.834-11.148,6.834,1.919-7.391-.731-7.67c0,0-1.394,6.195-4.323,9.164s.6,10.992-.539,15.348S244.492,297.116,244.492,297.116Z" transform="translate(-156.83 -256.171)"/><path class="t" d="M244.265,292.135c-.653-4.293,2.894-7.537,4.947-8.762" transform="translate(-158.238 -259.33)"/><path class="u" d="M238.019,303.866s-.279,3.38-.747,8.3v.006c-1.184,12.534-3.609,35.07-5.836,37.254-3.1,3.045-14.984-1.158-14.984-1.158l-4.646-21.94-1.2-5.659,2.691-2.773c3.893,4.051,8.2,12.281,8.2,12.281s-1.938-10,10.856-28.024Z" transform="translate(-150.282 -263.78)"/><path class="v" d="M237.646,315.288c-1.184,12.534-3.609,35.07-5.836,37.254-3.1,3.045-14.984-1.158-14.984-1.158l-4.646-21.94,3.6-4.748c4.051,9.211,6.989,20.561,10.945,20.687s5.944-9.837,7.6-18.161C235.923,319.118,237.556,315.478,237.646,315.288Z" transform="translate(-150.656 -266.891)"/><path class="n" d="M207.5,411.509l4.883,31.514-52.615-9.934,12.252-26.167Z" transform="translate(-138.24 -288.597)"/><path class="u" d="M210.2,372.278v.007c-.576,9.882-1.525,17.516-1.525,17.516H166.423l2.722-5.736c6.641-15.116.716-33.17-3.285-43.23-.405-1.013-.791-1.943-1.139-2.778l8.2-16.314,16.744-6.463s5.627,2.063,8.691,3.02,5.925,2.1,10.319,19.117C211.027,346.526,210.863,360.9,210.2,372.278Z" transform="translate(-139.413 -266.889)"/><path class="v" d="M210.552,378.241c-.576,9.882-1.525,17.516-1.525,17.516H166.777l2.722-5.736c6.641-15.116.716-33.17-3.285-43.229l6.045-6.368c-1.152,9.305,1.6,31.968,6.457,40.381S204.993,390.553,210.552,378.241Z" transform="translate(-139.767 -272.845)"/><path class="s" d="M169.107,387.706c7.524,4.93,6.714,11.57,4.083,14.663s-1.941-1.6-1.941-1.6-1.038,7.458-2.539,7.635-.533-3.61-.533-3.61-.1,4.936-1.324,4.988.744-16.618-1.6-18.713S169.107,387.706,169.107,387.706Z" transform="translate(-139.413 -284.045)"/><path class="u" d="M173.843,325.347c-.968,2.064-5.944,6.925-11.1,11.635-6.045,5.526-12.337,10.831-12.736,11.167l-.019.019c8.02,1.424,13.541,24.549,13.541,24.549l-5.121,4.147s-5.868-6.248-10.945-11.819a1.088,1.088,0,0,0-.108-.114l-.006-.013c-2.26-2.488-4.349-4.83-5.678-6.406-4.317-5.127-12.167-11.223-9.616-15.5s22.935-23.08,29.892-26.037l12.617,1.285S175.976,320.8,173.843,325.347Z" transform="translate(-131.557 -267.289)"/><path class="s" d="M190.824,268.788c2.3,5.819,9.189,12.1,9.189,12.1l-4.595,1.531a94.974,94.974,0,0,1,2.756,11.639s-11.025,1.684-14.089,1.532L172.6,284.562V274.3l10.107-6.892Z" transform="translate(-141.28 -255.549)"/><path class="m" d="M187.7,265.106c-1.532,1.994-10.11,5.21-10.11,5.21l.766,9.8-1.07,4.134-2.981,1.266.924,8.533c-1.089-2.893-9.059-7-12.9-8.843a4.382,4.382,0,0,1-2.443-3.323c-.165-1.127-.335-2.558-.424-4.052-.158-2.658-.056-5.52.817-7.21,1.994-3.83,14.946-10.875,14.946-10.875s-6.058-2.45-3.127-5.2c2.482-2.33,10.135-3.786,13.939-1.595a4.28,4.28,0,0,1,1.659,1.595C190.15,258.827,189.232,263.118,187.7,265.106Z" transform="translate(-138.154 -251.867)"/><path class="n" d="M187.72,265.441c-1.532,1.994-10.11,5.21-10.11,5.21l.766,9.8-1.07,4.134-2.981,1.266.924,8.533c-1.089-2.893-9.059-7-12.9-8.843a4.382,4.382,0,0,1-2.443-3.323c-.165-1.127-.335-2.558-.424-4.052,4.077,5.786,10.072.836,9.553-2.747s1.31-10.394,8.122-9.35,12.053-6.014,8.9-12.787a4.28,4.28,0,0,1,1.659,1.595C190.169,259.162,189.251,263.453,187.72,265.441Z" transform="translate(-138.173 -252.202)"/><path class="s" d="M183.44,288.147c-.919-3.676-3.829-4.288-5.513-2.91s-.613,7.2,4.441,7.044Z" transform="translate(-142.366 -259.612)"/><line class="w" x2="0.735" y2="2.729" transform="translate(49.563 19.136)"/><path class="x" d="M197.278,294.683c-1.493.42-3.8-1.785-3.8-1.785s-.485,5.27,4.381,5.033Z" transform="translate(-146.222 -261.587)"/><path class="y" d="M183.2,288.632c-1.47-1.784-3.1-1.47-3.125,0s2.6,2.729,2.6,2.729Z" transform="translate(-143.05 -260.286)"/><path class="z" d="M177.055,312.4l-6.537,3.7,15.293,4.75,5.224-6.255-3.8-1.687Z" transform="translate(-140.787 -266.206)"/><path class="s" d="M189.2,302.165l.781,7.265-2.227,7.417-7.95-7.929-.871-12.955Z" transform="translate(-142.78 -262.313)"/><path class="y" d="M189.327,302.293c-2.38-.2-9.856-5.79-9.856-5.79s5.89,10.075,10.253,10.864Z" transform="translate(-142.908 -262.441)"/><path class="z" d="M190.49,322.79s7.975,14.189,7.246,17.734h-2.668s-3.483-13.83-5.306-17.734Z" transform="translate(-145.345 -268.668)"/><path class="v" d="M168.469,382.4l-5.121,4.147s-5.868-6.248-10.945-11.819c.943.981,7.622,7.742,9.4,2.937,1.918-5.172-6.875-19.813-6.875-19.813C162.948,359.276,168.469,382.4,168.469,382.4Z" transform="translate(-136.495 -276.973)"/><path class="v" d="M168.473,341.862c-6.045,5.526-12.337,10.831-12.736,11.167a202.038,202.038,0,0,1,15.389-15.458Z" transform="translate(-137.285 -272.169)"/></g><g transform="translate(170.84 199.339)"><rect class="aa" width="11.384" height="10.937" transform="translate(1.879 7.505) rotate(-13.732)"/><path class="ab" d="M286.309,365.717h0a2.033,2.033,0,0,1-2.457-1.492l-7.289-29.831,3.95-.965,7.289,29.83A2.033,2.033,0,0,1,286.309,365.717Z" transform="translate(-262.71 -325.057)"/><rect class="ab" width="25.66" height="10.937" transform="translate(1.879 7.505) rotate(-13.731)"/><rect class="ac" width="25.66" height="6.315" transform="translate(2.976 11.995) rotate(-13.731)"/><path class="s" d="M262.486,343.928h0a1.194,1.194,0,0,1-1.443-.876l-2.6-10.632a1.194,1.194,0,0,1,.877-1.443h0a1.194,1.194,0,0,1,1.443.876l2.6,10.632A1.194,1.194,0,0,1,262.486,343.928Z" transform="translate(-258.41 -324.468)"/><path class="s" d="M297.206,335.444h0a1.194,1.194,0,0,1-1.443-.877l-2.6-10.632a1.194,1.194,0,0,1,.876-1.443h0a1.194,1.194,0,0,1,1.443.876l2.6,10.632A1.194,1.194,0,0,1,297.206,335.444Z" transform="translate(-266.635 -322.458)"/></g><g transform="translate(185.404 136.302)"><path class="s" d="M294.167,357.845a14.34,14.34,0,0,0,2.1,4.132l-1.583,6.29c-1.647-.4-2.993-.681-3.933-.817-4.076-.584-7.142,2.064-9.17-2.356a16.031,16.031,0,0,1-1.67-7.681s-2.424-.047-2.42-1.886,8.593-.417,8.593-.417a5.814,5.814,0,0,1-1.521-3.757c-.134-2.468,1.92-.344,4.457,1.657S293.462,355.5,294.167,357.845Z" transform="translate(-277.495 -266.003)"/><path class="aa" d="M350.21,277.6l-20.88-17.191a8.67,8.67,0,0,1-3.15-4.908,11.949,11.949,0,0,1,5.428-13.57c8.245-5,13.14.27,10.08,2.839,0,0,14.2-1.039,18.706,9.311a13.914,13.914,0,0,1,.533,1.406C364.707,267.323,350.21,277.6,350.21,277.6Z" transform="translate(-288.925 -239.853)"/><path class="b" d="M350.344,282.014l-20.88-17.191a8.67,8.67,0,0,1-3.15-4.908c.859,1.2,1.724,1.821,1.973-.014,3.648,8.778,11.119,9.145,10.751,4.818,0,0,.872,6.078,4.286,5.94,2.963-.111,2.651-2.264,2.513-2.832.221.748,1.454,4.293,4.964,2.839a8.607,8.607,0,0,0,4.763-4.583,2.164,2.164,0,0,0,.29-.062c4.244-1.191,4.909-4.314,4.673-7.526a13.913,13.913,0,0,1,.533,1.406C364.841,271.74,350.344,282.014,350.344,282.014Z" transform="translate(-289.06 -244.269)"/><path class="s" d="M344.46,291.5v6.922h9.867V280.693l-7.517,1.38Z" transform="translate(-293.358 -249.527)"/><path class="m" d="M356.666,414.129l-29.105,11.91-22.261,4.6s9.372-59.848,12.775-76.392c.557-2.694,1.16-5.327,1.824-7.845.023-.092.046-.183.076-.282.931-3.518,1.938-7.028,2.976-10.378,2.137-6.975,4.35-13.309,6-17.849.916-2.518,1.664-4.479,2.137-5.685.336-.885.527-1.366.527-1.366l.771.969,2.8,3.533,15.751-4.686c2.2,4.342,4.083,18.025,5.5,31.936v.008c1.236,12.2,2.114,24.58,2.534,30.99v.008c.153,2.228.237,3.732.267,4.266a.4.4,0,0,1,.008.092C359.253,378.035,356.666,414.129,356.666,414.129Z" transform="translate(-284.082 -256.626)"/><path class="n" d="M365.556,413.4l-28.739,6.158-3.4-33.989-4.983-49.824c2.137-6.975,4.35-13.309,6-17.849.916-2.518,1.664-4.479,2.137-5.685l1.3-.4,2.8,3.533,15.751-4.686c2.2,4.342,4.083,18.025,5.5,31.936v.008c1.236,12.2,2.114,24.58,2.534,30.99v.008c.069,1.763.153,3.213.267,4.266a.4.4,0,0,1,.008.092c.008.076.008.114.008.114C365.968,389.5,365.556,413.4,365.556,413.4Z" transform="translate(-289.561 -256.626)"/><path class="y" d="M344.332,290.577c3.015.1,6.455-3.529,8.161-2.985a2.272,2.272,0,0,1,1.706,2.052V272.4L343.92,284.331Z" transform="translate(-293.23 -247.563)"/><path class="s" d="M329.248,262.2s-2.907,13.4-5.563,15.925h3.983l.266,10.755a49.8,49.8,0,0,0,12.31-2.458,11.94,11.94,0,0,0,5.72-4.6h0a12.226,12.226,0,0,0,1.48-3.085l3.726-11.764-8.1-5.444-9.029-1.194Z" transform="translate(-288.437 -244.705)"/><path class="s" d="M351.505,278.89c.531-5.311,4.647-7.569,6.24-4.249s-1.01,8.648-3.957,7.842A2.982,2.982,0,0,1,351.505,278.89Z" transform="translate(-295.012 -247.725)"/><path class="y" d="M354.591,277.223c.417-1.762,2.263-1.382,1.991.465s-.847,3.273-2.487,3.293Z" transform="translate(-295.641 -248.436)"/><line class="w" y2="2.807" transform="translate(41.421 24.314)"/><path class="x" d="M332.24,287.6c2.527-.094,3.743-2.994,3.743-2.994s.912,6.029-3.743,6.6Z" transform="translate(-290.463 -250.454)"/><path class="m" d="M345.1,370.834c-2.892,1.386-40.53-6.916-46.042-8.226l2.317-8.576,30.912.931s3.094-25.692,3.577-31.673a7.17,7.17,0,0,1,12.386-4.3C354.816,325.849,347.987,369.446,345.1,370.834Z" transform="translate(-282.604 -258.057)"/><path class="aa" d="M328.9,258.182c3.648,8.781,11.119,9.149,10.749,4.818,0,0,.875,6.08,4.288,5.945s2.477-2.972,2.477-2.972,1.087,4.6,5,2.975,5.4-5.136,4.991-6.352-4.864-6.755-4.864-6.755-5.745-4.593-7.939-4.593S328.9,258.182,328.9,258.182Z" transform="translate(-289.673 -242.552)"/><path class="b" d="M356.177,266.21a8.608,8.608,0,0,1-4.763,4.583c-3.51,1.454-4.743-2.091-4.964-2.839.138.568.45,2.721-2.513,2.832-3.413.138-4.286-5.94-4.286-5.94.367,4.327-7.1,3.96-10.751-4.818,3.136,4.922,9.872,3.821,9.762.789,0,0,4.68,3.586,7.989,2.208a2.8,2.8,0,0,0,1.682-3.995C349.2,260.721,352.6,266.848,356.177,266.21Z" transform="translate(-289.672 -244.396)"/><path class="aa" d="M367.077,274.384a12.833,12.833,0,0,1-.465,1.679,7.184,7.184,0,0,1-2.526,3.693,4.917,4.917,0,0,1,1.107,1.542v.008a4.625,4.625,0,0,1-.4,4.609c-2.244,3.632-16.8,2.236-21.268.694-2.175-.748-2.564-5.021-2.381-10.233v-.015c.191-5.517,1.015-12.065,1.015-16.605l4.159-1.686s16.575-2.381,18.254,1.564a11.957,11.957,0,0,1,.58,5.845v.015a19.556,19.556,0,0,1-.778,3.632A4.386,4.386,0,0,1,367.077,274.384Z" transform="translate(-292.562 -243.999)"/><path class="b" d="M369.939,267.879v.015a19.557,19.557,0,0,1-.778,3.632c-1.511.481-7.83.046-7.83.046s7.112-.618,8.532-4.083C369.863,267.49,369.893,267.635,369.939,267.879Z" transform="translate(-297.355 -246.4)"/><path class="b" d="M371.541,281.87a7.184,7.184,0,0,1-2.526,3.693l-7.1-.008S368.329,285.029,371.541,281.87Z" transform="translate(-297.492 -249.806)"/><path class="b" d="M364.787,291.819c-2.244,3.632-16.8,2.236-21.268.694-2.175-.748-2.564-5.021-2.381-10.233,1.366,7.99,10.943,7.967,16.735,7.547,5.456-.4,7.25-1.145,7.318-2.617A4.625,4.625,0,0,1,364.787,291.819Z" transform="translate(-292.562 -249.903)"/><path class="m" d="M354.259,258.807c-.069-.138-.118-.235-.138-.284C354.148,258.579,354.2,258.676,354.259,258.807Z" transform="translate(-295.647 -244.276)"/><path class="b" d="M339.476,314.968s-.151.3-.413.817c-1.329,2.614-5.507,10.72-7.211,12.7-2.039,2.375-3.207-.5-4.849.865s-2.154-2.959-3.382-1.467,3.334-5.483,6.173-8.9,5.049-5.754,5.873-9.926Z" transform="translate(-288.373 -256.248)"/><path class="aa" d="M358.733,308.45l-15.751,4.685-3.571-4.5-1.19-6.555a.12.12,0,0,0,.031-.008c5.5-1.19,20.482-.588,20.482-.588C360.786,304.5,358.733,308.45,358.733,308.45Z" transform="translate(-291.88 -254.416)"/></g></g></g></svg>