<svg xmlns="http://www.w3.org/2000/svg" width="289.558" height="265.372" viewBox="0 0 289.558 265.372"><defs><style>.a,.g{fill:#e0e0e0;}.b{fill:#f5f5f5;}.c{fill:#e6e6e6;}.d{fill:#f0f0f0;}.e,.i,.j,.t{fill:#fff;}.f{fill:#fafafa;}.g{opacity:0.6;}.h{fill:#407bff;}.i{opacity:0.8;}.j,.k{opacity:0.3;}.l{fill:#263238;}.m{fill:#803e3c;}.n{fill:#7f3e3b;}.o{fill:#630f0f;}.p{opacity:0.2;}.q,.t{opacity:0.4;}.r{fill:#095ba9;}.s{opacity:0.5;}</style></defs><g transform="translate(-42.087 -67.869)"><g transform="translate(43.477 67.869)"><g transform="translate(0 0)"><g transform="translate(0 21.826)"><path class="a" d="M114.328,164.034a15.614,15.614,0,1,0,0-31.228h-1.915v31.228Z" transform="translate(-71.761 -109.356)"/><circle class="b" cx="15.614" cy="15.614" r="15.614" transform="translate(25.038 23.449)"/><path class="a" d="M104.365,144.353a20.924,20.924,0,0,1-20.9-20.9V110.963a1.963,1.963,0,0,1,3.925,0v12.489a17,17,0,0,0,16.976,16.976,1.962,1.962,0,1,1,0,3.925Z" transform="translate(-64.429 -103.327)"/><path class="b" d="M61.6,120.032H96.34a3.627,3.627,0,0,0,3.506-4.556L96.832,104.1a3.628,3.628,0,0,0-3.507-2.7H64.615a3.628,3.628,0,0,0-3.507,2.7L58.1,115.477A3.627,3.627,0,0,0,61.6,120.032Z" transform="translate(-57.972 -101.402)"/></g><g transform="translate(220.503 21.826)"><path class="a" d="M409.627,164.034a15.614,15.614,0,1,0,0-31.228h-1.915v31.228Z" transform="translate(-367.06 -109.356)"/><circle class="b" cx="15.614" cy="15.614" r="15.614" transform="translate(25.038 23.449)"/><path class="a" d="M399.664,144.353a20.925,20.925,0,0,1-20.9-20.9V110.963a1.963,1.963,0,0,1,3.925,0v12.489a17,17,0,0,0,16.976,16.976,1.962,1.962,0,1,1,0,3.925Z" transform="translate(-359.728 -103.327)"/><path class="b" d="M356.9,120.032h34.738a3.627,3.627,0,0,0,3.507-4.556L392.131,104.1a3.628,3.628,0,0,0-3.507-2.7H359.913a3.627,3.627,0,0,0-3.506,2.7l-3.013,11.376A3.627,3.627,0,0,0,356.9,120.032Z" transform="translate(-353.271 -101.402)"/></g><g transform="translate(0.83 130.456)"><g transform="translate(21.058)"><rect class="c" width="11.355" height="44.004" transform="translate(46.224 51.503) rotate(180)"/><path class="d" d="M92.751,298.383h37.686l5.691-51.5H98.442Z" transform="translate(-88.669 -246.88)"/><path class="b" d="M87.285,298.383h38.927l5.691-51.5H92.976Z" transform="translate(-87.285 -246.88)"/><path class="e" d="M124.658,295.7l4.794-43.386h-32.4L92.253,295.7Z" transform="translate(-88.543 -248.257)"/><path class="b" d="M121.748,288.753l.2-1.768c1.2-10.885-5.594-20.585-14.421-20.585h0l-.2,1.768c-1.2,10.884,5.593,20.585,14.421,20.585Z" transform="translate(-92.326 -251.824)"/></g><g transform="translate(0 51.503)"><g transform="translate(0 0)"><rect class="c" width="33.481" height="49.69" transform="translate(33.481 49.69) rotate(180)"/><path class="d" d="M62.452,379.149H59.084v-9.579h6.9Z" transform="translate(-59.084 -329.459)"/><rect class="c" width="33.482" height="49.69" transform="translate(127.32 49.69) rotate(180)"/><rect class="d" width="96.778" height="43.812" transform="translate(96.778 43.812) rotate(180)"/><path class="d" d="M182.982,379.149h3.368v-9.579h-6.9Z" transform="translate(-89.572 -329.459)"/><rect class="c" width="91.553" height="17.679" transform="translate(94.165 20.419) rotate(180)"/><path class="d" d="M110.953,332.912h12.211a19.318,19.318,0,0,0,14.023-6.032H96.931A19.315,19.315,0,0,0,110.953,332.912Z" transform="translate(-68.67 -318.646)"/><rect class="c" width="91.553" height="17.679" transform="translate(94.165 40.954) rotate(180)"/><path class="d" d="M110.953,360.413h12.211a19.32,19.32,0,0,0,14.023-6.031H96.931A19.317,19.317,0,0,0,110.953,360.413Z" transform="translate(-68.67 -325.612)"/></g></g><g transform="translate(72.72 2.33)"><path class="c" d="M180.093,300.731h.865c-.009-1.782,0-6.3.09-16.661.156-18.775.454-19.919.454-19.919l-2.059,8.667C178.137,282.416,179.821,292.061,180.093,300.731Z" transform="translate(-162.165 -253.584)"/><path class="c" d="M172.689,272.178c-2.964-3.533-9.3-4.561-15.782-5.441-2.546-.345,6.69,5.473,11.2,9.6,3.507,3.209,5.749,4.1,6.712,7.3C175.325,279.648,175.243,275.222,172.689,272.178Z" transform="translate(-156.471 -254.236)"/><path class="c" d="M182.65,280.635c2.964-3.533,9.3-4.562,15.782-5.441,2.546-.346-6.69,5.472-11.2,9.6-3.507,3.21-5.749,4.1-6.711,7.3C180.014,288.1,180.1,283.679,182.65,280.635Z" transform="translate(-162.499 -256.378)"/><path class="c" d="M181.236,259.736c2.222-4.222,7.815-8.2,14.09-9.706,2.464-.592-5.707,7.8-8.813,13.207-2.413,4.2-5.612,9.139-6.11,12.685C179.654,268.9,179.014,263.958,181.236,259.736Z" transform="translate(-162.356 -250)"/><g transform="translate(12.135 41.131)"><path class="d" d="M179.563,313.843h0c-2.648,0-4.836-1.327-4.988-3.025l-.441-2.9h10.859l-.441,2.9C184.4,312.516,182.211,313.843,179.563,313.843Z" transform="translate(-173.08 -305.801)"/><path class="d" d="M185.338,308.315H173.073l-.351-3.232h12.967Z" transform="translate(-172.722 -305.083)"/></g></g></g><g transform="translate(77.965)"><g transform="translate(2.652 6.286)"><rect class="c" width="119.628" height="109.118" transform="translate(122.32 109.118) rotate(180)"/><rect class="b" width="121.15" height="109.118" transform="translate(121.15 109.118) rotate(180)"/><rect class="f" width="99.342" height="111.485" transform="translate(116.317 4.888) rotate(90)"/><path class="e" d="M283.449,186.48,239.571,87.138h-14.9l43.878,99.342Z" transform="translate(-180.811 -82.25)"/><path class="e" d="M259.406,186.48,215.528,87.138H205.266l43.878,99.342Z" transform="translate(-175.897 -82.25)"/><rect class="c" width="99.342" height="5.765" transform="translate(46.228 4.888) rotate(90)"/><rect class="c" width="99.342" height="5.765" transform="translate(84.549 4.888) rotate(90)"/><rect class="b" width="106.078" height="7.288" transform="translate(45.189 1.254) rotate(90)"/><rect class="b" width="106.078" height="7.287" transform="translate(83.509 1.254) rotate(90)"/><rect class="c" width="99.342" height="0.513" transform="translate(5.346 4.888) rotate(90)"/></g><path class="c" d="M163.006,72.173h129.6a.624.624,0,0,1,.623.623h0a.625.625,0,0,1-.623.623h-129.6a.625.625,0,0,1-.623-.623h0A.624.624,0,0,1,163.006,72.173Z" transform="translate(-162.383 -72.173)"/><path class="c" d="M329.461,76.5h0a.844.844,0,0,0,.841-.842V73.849a.844.844,0,0,0-.841-.842h0a.844.844,0,0,0-.841.842v1.807A.844.844,0,0,0,329.461,76.5Z" transform="translate(-204.489 -72.384)"/><path class="c" d="M175.519,76.5h0a.844.844,0,0,0,.842-.842V73.849a.844.844,0,0,0-.842-.842h0a.844.844,0,0,0-.841.842v1.807A.844.844,0,0,0,175.519,76.5Z" transform="translate(-165.497 -72.384)"/><rect class="g" width="121.062" height="85.451" transform="translate(121.884 86.074) rotate(180)"/></g><g transform="translate(162.39 127.722)"><g transform="translate(23.526 9.239)"><rect class="f" width="28.909" height="17.698" rx="5.382" transform="translate(0 3.269)"/><rect class="c" width="28.909" height="3.79" rx="1.807"/></g><g transform="translate(23.952 49.832)"><path class="d" d="M307.523,309.955S307.9,322.4,322.4,322.4s14.88-12.442,14.88-12.442Z" transform="translate(-307.523 -309.955)"/></g><g transform="translate(57.017 49.832)"><path class="d" d="M351.8,309.955s.379,12.442,14.88,12.442,14.88-12.442,14.88-12.442Z" transform="translate(-351.804 -309.955)"/></g><g transform="translate(45.396)"><path class="d" d="M7.4,0H32.331a7.4,7.4,0,0,1,7.4,7.4V18.318a7.4,7.4,0,0,1-7.4,7.4H7.4a7.4,7.4,0,0,1-7.4-7.4V7.4A7.4,7.4,0,0,1,7.4,0Z" transform="translate(0 4.492)"/><rect class="b" width="39.728" height="5.208" rx="2.483"/></g><g transform="translate(0 30.206)"><rect class="c" width="3.762" height="61.711" transform="translate(16.792 73.72) rotate(180)"/><g transform="translate(0 0)"><rect class="c" width="20.378" height="12.009" transform="translate(101.314 0)"/><rect class="b" width="101.314" height="12.009" transform="translate(101.314 12.009) rotate(180)"/></g><g transform="translate(0 32.069)"><g transform="translate(0 0)"><rect class="c" width="20.378" height="12.009" transform="translate(101.314 0)"/><rect class="b" width="101.314" height="12.009" transform="translate(101.314 12.009) rotate(180)"/></g></g><rect class="c" width="3.762" height="61.711" transform="translate(118.106 73.72) rotate(180)"/><rect class="b" width="3.762" height="61.711" transform="translate(101.314 73.72) rotate(180)"/><rect class="b" width="3.762" height="61.711" transform="translate(3.762 73.72) rotate(180)"/></g></g></g></g><g transform="translate(42.087 316.331)"><ellipse class="b" cx="144.779" cy="8.455" rx="144.779" ry="8.455" transform="translate(0 0)"/></g><g transform="translate(84.855 104.669)"><g transform="translate(0 0)"><g transform="translate(0 5.396)"><path class="h" d="M223.174,305.513H127.913a6.068,6.068,0,0,1-5.992-5.7L113.394,134.38a5.359,5.359,0,0,1,5.405-5.7h95.26a6.069,6.069,0,0,1,5.993,5.7l8.525,165.434A5.358,5.358,0,0,1,223.174,305.513Z" transform="translate(-113.387 -128.681)"/><path class="i" d="M223.174,305.513H127.913a6.068,6.068,0,0,1-5.992-5.7L113.394,134.38a5.359,5.359,0,0,1,5.405-5.7h95.26a6.069,6.069,0,0,1,5.993,5.7l8.525,165.434A5.358,5.358,0,0,1,223.174,305.513Z" transform="translate(-113.387 -128.681)"/></g><rect class="h" width="10.537" height="0.747" transform="translate(80.735)"/><rect class="h" width="3.858" height="0.747" transform="translate(73.226)"/><path class="h" d="M230.282,294.077H139.175a5.8,5.8,0,0,1-5.732-5.45l-8.154-158.221a5.125,5.125,0,0,1,5.169-5.45h91.108a5.8,5.8,0,0,1,5.731,5.45l8.154,158.221A5.125,5.125,0,0,1,230.282,294.077Z" transform="translate(-116.4 -122.342)"/><path class="e" d="M231.517,291.671H140.41a2.182,2.182,0,0,1-2.1-2l-8.155-158.222a1.521,1.521,0,0,1,.4-1.162,1.505,1.505,0,0,1,1.13-.461H222.8a2.183,2.183,0,0,1,2.1,2l8.154,158.221a1.522,1.522,0,0,1-.4,1.163A1.506,1.506,0,0,1,231.517,291.671ZM131.694,130.017a1.3,1.3,0,0,0-1.348,1.426L138.5,289.665a1.988,1.988,0,0,0,1.909,1.82h91.107a1.3,1.3,0,0,0,1.348-1.426l-8.154-158.221a1.988,1.988,0,0,0-1.909-1.82Z" transform="translate(-117.634 -123.576)"/><ellipse class="j" cx="26.879" cy="28.3" rx="26.879" ry="28.3" transform="matrix(0.698, -0.716, 0.716, 0.698, 22.728, 43.672)"/><path class="e" d="M210.824,173.045a21.425,21.425,0,0,1-2.149,10.629,20.945,20.945,0,0,1-19.015,11.685,23.7,23.7,0,0,1-20.22-11.685,23.041,23.041,0,0,1-3.244-10.629A20.981,20.981,0,0,1,187.36,150.73,23.759,23.759,0,0,1,210.824,173.045Z" transform="translate(-126.755 -128.87)"/><path class="h" d="M209.786,192.832a20.945,20.945,0,0,1-19.015,11.685,23.7,23.7,0,0,1-20.22-11.685,33.738,33.738,0,0,1,19.311-5.943A36.686,36.686,0,0,1,209.786,192.832Z" transform="translate(-127.866 -138.029)"/><ellipse class="h" cx="9.687" cy="10.199" rx="9.687" ry="10.199" transform="translate(47.297 36.359) rotate(-45.738)"/><g transform="translate(26.521 82.499)"><path class="e" d="M223.208,263.9H151.872a2.456,2.456,0,0,1-2.425-2.307l-.54-10.482a2.168,2.168,0,0,1,2.187-2.306H222.43a2.456,2.456,0,0,1,2.425,2.306l.541,10.482A2.169,2.169,0,0,1,223.208,263.9Z" transform="translate(-148.904 -236.21)"/><path class="k" d="M208.188,238.776H178.394a2.456,2.456,0,0,1-2.425-2.307l-.114-2.225a2.168,2.168,0,0,1,2.187-2.307h29.794a2.456,2.456,0,0,1,2.425,2.307l.114,2.225A2.169,2.169,0,0,1,208.188,238.776Z" transform="translate(-155.729 -231.938)"/><path class="k" d="M217.365,331.9H172.74a4.183,4.183,0,0,1-4.13-3.928l-.265-5.147a3.693,3.693,0,0,1,3.725-3.928h44.624a4.183,4.183,0,0,1,4.13,3.928l.265,5.147A3.693,3.693,0,0,1,217.365,331.9Z" transform="translate(-153.827 -253.963)"/><path class="e" d="M224.952,297.736H153.616a2.455,2.455,0,0,1-2.425-2.306l-.541-10.482a2.169,2.169,0,0,1,2.188-2.307h71.336a2.456,2.456,0,0,1,2.425,2.307l.54,10.482A2.168,2.168,0,0,1,224.952,297.736Z" transform="translate(-149.345 -244.78)"/><path class="l" d="M163.295,258.047a2.4,2.4,0,0,1-2.422,2.554,2.719,2.719,0,0,1-2.684-2.554,2.4,2.4,0,0,1,2.422-2.553A2.719,2.719,0,0,1,163.295,258.047Z" transform="translate(-151.255 -237.904)"/><path class="l" d="M173.8,258.047a2.4,2.4,0,0,1-2.422,2.554,2.719,2.719,0,0,1-2.685-2.554,2.4,2.4,0,0,1,2.422-2.553A2.719,2.719,0,0,1,173.8,258.047Z" transform="translate(-153.916 -237.904)"/><path class="l" d="M184.309,258.047a2.4,2.4,0,0,1-2.422,2.554,2.719,2.719,0,0,1-2.685-2.554,2.4,2.4,0,0,1,2.422-2.553A2.719,2.719,0,0,1,184.309,258.047Z" transform="translate(-156.577 -237.904)"/><path class="l" d="M194.816,258.047a2.4,2.4,0,0,1-2.422,2.554,2.719,2.719,0,0,1-2.684-2.554,2.4,2.4,0,0,1,2.422-2.553A2.719,2.719,0,0,1,194.816,258.047Z" transform="translate(-159.239 -237.904)"/><path class="l" d="M165.038,291.883a2.4,2.4,0,0,1-2.422,2.553,2.719,2.719,0,0,1-2.684-2.553,2.4,2.4,0,0,1,2.422-2.554A2.719,2.719,0,0,1,165.038,291.883Z" transform="translate(-151.696 -246.475)"/><path class="l" d="M175.546,291.883a2.4,2.4,0,0,1-2.422,2.553,2.719,2.719,0,0,1-2.684-2.553,2.4,2.4,0,0,1,2.422-2.554A2.719,2.719,0,0,1,175.546,291.883Z" transform="translate(-154.357 -246.475)"/><path class="l" d="M186.053,291.883a2.4,2.4,0,0,1-2.422,2.553,2.719,2.719,0,0,1-2.685-2.553,2.4,2.4,0,0,1,2.422-2.554A2.719,2.719,0,0,1,186.053,291.883Z" transform="translate(-157.019 -246.475)"/><path class="l" d="M196.56,291.883a2.4,2.4,0,0,1-2.422,2.553,2.719,2.719,0,0,1-2.685-2.553,2.4,2.4,0,0,1,2.422-2.554A2.719,2.719,0,0,1,196.56,291.883Z" transform="translate(-159.68 -246.475)"/><path class="l" d="M207.067,291.883a2.4,2.4,0,0,1-2.422,2.553,2.719,2.719,0,0,1-2.684-2.553,2.4,2.4,0,0,1,2.422-2.554A2.719,2.719,0,0,1,207.067,291.883Z" transform="translate(-162.342 -246.475)"/><path class="l" d="M217.575,291.883a2.4,2.4,0,0,1-2.422,2.553,2.719,2.719,0,0,1-2.684-2.553,2.4,2.4,0,0,1,2.422-2.554A2.72,2.72,0,0,1,217.575,291.883Z" transform="translate(-165.003 -246.475)"/></g></g></g><g transform="translate(175.754 92.114)"><g transform="translate(0 0)"><path class="m" d="M330.807,176.624c.187.277.282.429.406.629l.334.559c.217.369.406.738.6,1.107.373.738.727,1.477,1.042,2.224a41.172,41.172,0,0,1,1.619,4.553,47.735,47.735,0,0,1,1.77,9.36l.058.59c.01.084.018.217.024.356l.016.4a9.432,9.432,0,0,1-.09,1.552,12.484,12.484,0,0,1-.741,2.782,19.019,19.019,0,0,1-2.583,4.465,31.783,31.783,0,0,1-6.951,6.58l-2.057-2.41a43.088,43.088,0,0,0,4.959-6.862,15.968,15.968,0,0,0,1.514-3.524,6.994,6.994,0,0,0,.245-1.6,3.818,3.818,0,0,0-.025-.694l-.023-.16c-.005-.049-.011-.1-.031-.2l-.093-.526a58.425,58.425,0,0,0-2.03-8.217c-.429-1.334-.96-2.622-1.5-3.888-.266-.635-.56-1.251-.862-1.853l-.463-.877-.23-.416-.19-.326Z" transform="translate(-257.695 -122.874)"/><path class="n" d="M323.7,222.775l2.7,5.709,2.145-4.828s-1.9-4.182-4.472-3.8Z" transform="translate(-257.554 -133.819)"/><path class="n" d="M329.255,230.065l2.147-3.521-1.94-1.59-2.144,4.827Z" transform="translate(-258.471 -135.116)"/><path class="h" d="M313.142,407.679a7.6,7.6,0,0,0,1.652-.224.149.149,0,0,0,.112-.118.147.147,0,0,0-.065-.149c-.214-.141-2.114-1.367-2.841-1.038a.507.507,0,0,0-.295.417.843.843,0,0,0,.246.787A1.793,1.793,0,0,0,313.142,407.679Zm1.233-.435a2.965,2.965,0,0,1-2.224-.109.559.559,0,0,1-.152-.527.211.211,0,0,1,.123-.187C312.506,406.244,313.6,406.776,314.375,407.244Z" transform="translate(-254.514 -180.997)"/><path class="h" d="M315.231,406.962a.147.147,0,0,0,.075-.019.149.149,0,0,0,.074-.128c0-.076-.008-1.877-.688-2.479a.772.772,0,0,0-.627-.2.517.517,0,0,0-.5.413c-.14.706,1,2.055,1.594,2.392A.141.141,0,0,0,315.231,406.962Zm-1.064-2.535a.479.479,0,0,1,.328.13,3.391,3.391,0,0,1,.579,1.97c-.6-.475-1.3-1.488-1.219-1.918.014-.07.055-.154.244-.177A.525.525,0,0,1,314.167,404.426Z" transform="translate(-254.985 -180.499)"/><path class="h" d="M302.89,404.047a.148.148,0,0,0-.1-.249c-.31-.016-2.994-.127-3.6.527a.491.491,0,0,0-.037.044.476.476,0,0,0-.063.463.821.821,0,0,0,.544.544c.869.27,2.4-.7,3.234-1.31A.184.184,0,0,0,302.89,404.047Zm-3.477.473c.333-.361,1.81-.458,2.92-.441-1.163.789-2.124,1.164-2.61,1.013a.532.532,0,0,1-.353-.36.184.184,0,0,1,.022-.187A.246.246,0,0,1,299.413,404.52Z" transform="translate(-251.313 -180.411)"/><path class="h" d="M303.16,403.454a.215.215,0,0,0,.019-.026.148.148,0,0,0,0-.147c-.035-.063-.869-1.531-1.858-1.8a1.071,1.071,0,0,0-.852.111c-.355.208-.376.449-.331.612.191.691,2.095,1.3,2.913,1.3A.149.149,0,0,0,303.16,403.454Zm-2.682-1.5a.619.619,0,0,1,.142-.108.774.774,0,0,1,.625-.08,3.43,3.43,0,0,1,1.531,1.42c-.883-.1-2.236-.647-2.351-1.062A.163.163,0,0,1,300.478,401.957Z" transform="translate(-251.583 -179.818)"/><path class="n" d="M311.016,147.33c-.727,3.711-2.362,11.808.235,14.285,0,0-1.015,3.765-7.911,3.765-7.583,0-3.624-3.765-3.624-3.765,4.139-.988,4.032-4.059,3.311-6.943Z" transform="translate(-251.219 -115.455)"/><path class="l" d="M297.524,134.9a.3.3,0,0,0,.133-.031.3.3,0,0,0,.132-.4,2.941,2.941,0,0,0-2.149-1.642.3.3,0,0,0-.069.589h0a2.346,2.346,0,0,1,1.688,1.319A.3.3,0,0,0,297.524,134.9Z" transform="translate(-250.364 -111.782)"/><path class="o" d="M294.507,139.952a13.462,13.462,0,0,1-2.18,2.974,2.171,2.171,0,0,0,1.744.556Z" transform="translate(-249.609 -113.586)"/><path class="l" d="M295.583,138.541c-.061.5-.377.874-.7.833s-.543-.479-.481-.98.378-.874.7-.833S295.646,138.04,295.583,138.541Z" transform="translate(-250.131 -112.979)"/><path class="l" d="M295.142,137.455l-1.16-.5S294.483,137.975,295.142,137.455Z" transform="translate(-250.028 -112.828)"/><path class="n" d="M309.694,397.485l-6.091,1.423-3.7-14.01,6.091-1.423Z" transform="translate(-251.528 -175.268)"/><path class="n" d="M323.419,402.811h-6.255l.491-14.485h6.255Z" transform="translate(-255.9 -176.496)"/><path class="l" d="M313.448,406.755h7.027a.494.494,0,0,1,.5.427l.8,5.559a1,1,0,0,1-1,1.113c-2.45-.043-3.631-.187-6.721-.187-1.9,0-4.678.2-7.3.2-2.568,0-2.765-2.6-1.672-2.831,4.9-1.054,5.676-2.508,7.327-3.895A1.633,1.633,0,0,1,313.448,406.755Z" transform="translate(-252.679 -181.164)"/><path class="l" d="M301.709,401.879l6.384-2.937a.5.5,0,0,1,.632.18l3.05,4.716a1,1,0,0,1-.446,1.429c-2.243.986-3.376,1.349-6.184,2.64-1.727.794-5.216,2.617-7.6,3.715-2.333,1.073-3.6-1.2-2.7-1.874,4.012-3.006,5.158-5.133,6.077-7.083A1.635,1.635,0,0,1,301.709,401.879Z" transform="translate(-250.173 -179.173)"/><g transform="translate(48.377 208.21)"><path class="p" d="M299.905,384.9l1.982,7.506,6.018-1.707L306,383.478Z" transform="translate(-299.905 -383.478)"/><path class="p" d="M323.993,388.332h-6.257l-.25,7.466h6.257Z" transform="translate(-304.358 -384.708)"/></g><path class="l" d="M327.588,168.331c2.6.57,5.373,9.917,5.373,9.917l-7.347,7.811s-6.1-8.778-4.854-12.007C322.054,170.69,324.516,167.658,327.588,168.331Z" transform="translate(-256.768 -120.75)"/><path class="q" d="M323.469,176.071c-1.314-1.2-2.2-.844-2.808.112-.6,2.778,2.942,8.595,4.368,10.8C325.687,184.352,326.441,178.8,323.469,176.071Z" transform="translate(-256.768 -122.541)"/><path class="l" d="M285.655,167.992s-2.979,1.049,2.989,37.75h25.4c-.426-10.339-.438-16.714,4.5-37.931a74.9,74.9,0,0,0-10.787-1.421,80.825,80.825,0,0,0-11.535,0C291.273,166.842,285.655,167.992,285.655,167.992Z" transform="translate(-247.73 -120.229)"/><path class="q" d="M285.6,186.029c.164,1.785.381,3.793.665,6.063,2.08-1.874,3.781-7.2,3.159-10.312A18.362,18.362,0,0,0,285.6,186.029Z" transform="translate(-247.906 -124.18)"/><path class="m" d="M277.874,179.21a110.261,110.261,0,0,1-4.617,10.122,62.168,62.168,0,0,1-5.963,9.7l-.478.588-.238.293c-.082.1-.146.186-.279.321a9.136,9.136,0,0,1-1.475,1.312,12.145,12.145,0,0,1-3.122,1.56,22.7,22.7,0,0,1-6,1.057,44.482,44.482,0,0,1-11.319-1.005l.414-3.141c1.716.009,3.516-.029,5.252-.139a41.815,41.815,0,0,0,5.127-.573,20.023,20.023,0,0,0,4.584-1.278,7.007,7.007,0,0,0,1.65-1.006,3.337,3.337,0,0,0,.511-.534,2.254,2.254,0,0,0,.152-.2l.174-.246.349-.491a75.463,75.463,0,0,0,5-9.045c1.515-3.176,2.977-6.468,4.349-9.681Z" transform="translate(-237.464 -122.925)"/><path class="l" d="M283.555,168.533c-3.109.758-6.934,9.293-6.934,9.293l6.452,9.479s8.591-10.815,7.569-14.12C289.579,169.744,287.327,167.613,283.555,168.533Z" transform="translate(-245.631 -120.771)"/><path class="n" d="M245.322,207.669l-5.382-2.485-.541,5.351s4.5,1.324,6.716-.033Z" transform="translate(-236.203 -130.108)"/><path class="n" d="M235.632,204.46l-.513,4.074,3.2,1.817.541-5.35Z" transform="translate(-235.119 -129.925)"/><path class="n" d="M312.607,135.926c-1.139,6.1-1.49,8.71-4.987,11.481-5.258,4.17-12.505,1.437-13.212-4.883-.638-5.688,1.331-14.712,7.653-16.414A8.467,8.467,0,0,1,312.607,135.926Z" transform="translate(-250.107 -110.001)"/><path class="l" d="M299.728,135.984c-.349,3.112-.483,11.2,6.352,11.45,8.377.311,10.885-6.845,10.138-9.707,4.356-3.547,4.986-9.645.088-14.312s-15.681-2.058-18.694,2.489C293.879,131.539,299.728,135.984,299.728,135.984Z" transform="translate(-250.632 -108.773)"/><path class="h" d="M312.053,124.8c-.4-3.282-.09-5.547,2.979-5.547s7.27,1.115,8.81,4.26,1.664,8.061-2.629,7.563S312.538,128.725,312.053,124.8Z" transform="translate(-254.569 -108.342)"/><path class="l" d="M318.445,120.308c-.731-3.915,2.756-14.931,11.265-15.647,3.941-.332,5.766,3.91,3.7,4.608,3.723-.045,6.123,4.89,2.641,5.634,2.753,1.758,2.068,5.376-1.853,7.15C331.31,123.36,319.457,125.725,318.445,120.308Z" transform="translate(-256.2 -104.642)"/><path class="l" d="M327.553,128.51c-2.737,0-5.6-.4-7.374-1.59a3.662,3.662,0,0,1-1.756-2.842.187.187,0,0,1,.172-.2.183.183,0,0,1,.2.172,3.3,3.3,0,0,0,1.59,2.56c3.379,2.263,11.189,1.531,13.636.732,2.105-.687,3.531-2.018,3.814-3.561a3.083,3.083,0,0,0-1.25-3.021.186.186,0,1,1,.234-.29,3.485,3.485,0,0,1,1.384,3.379c-.308,1.68-1.828,3.119-4.065,3.849A24.366,24.366,0,0,1,327.553,128.51Z" transform="translate(-256.219 -108.641)"/><path class="n" d="M298.027,139.653a4.651,4.651,0,0,0-.8,3.371c.249,1.566,1.776,1.67,2.881.666,1-.9,2.065-2.808,1.25-4.106A1.963,1.963,0,0,0,298.027,139.653Z" transform="translate(-250.837 -113.267)"/><path class="r" d="M298.894,219.161s3.63,42.929,7.4,67.123c3.042,19.542,5.441,65.219,5.441,65.219h8.53s3.033-44.313,1.489-63.64c-3.907-48.908,4.807-52.893-4.161-68.7Z" transform="translate(-251.272 -133.649)"/><path class="q" d="M310.54,240.89a41.679,41.679,0,0,0-8.057,12.156c.993,9.648,2.174,20.355,3.427,29.734A82.41,82.41,0,0,0,310.54,240.89Z" transform="translate(-252.181 -139.152)"/><path class="r" d="M287.806,218.8s-7.874,46.885-9.119,68.019c3.093,19.542,15.743,60.846,15.743,60.846l7.758-2.811S297.9,299.812,293.2,287.48c10.506-35.374,18.228-44.314,15.981-68.411C303.827,219.069,287.806,218.8,287.806,218.8Z" transform="translate(-246.154 -133.557)"/><path class="l" d="M297.923,391.756l10.484-2.846-.594-4.179-11.225,3.035Z" transform="translate(-250.688 -175.586)"/><path class="l" d="M314.5,395.2h10.864l.57-3.811-11.5-.389Z" transform="translate(-255.209 -177.173)"/><g transform="translate(40.125 83.831)"><path class="h" d="M315.426,217.1l1.146,2.274c.089.177-.12.357-.414.357h-26.64c-.229,0-.419-.113-.433-.257l-.229-2.274c-.016-.158.183-.29.433-.29h25.724A.461.461,0,0,1,315.426,217.1Z" transform="translate(-288.854 -216.909)"/><path class="s" d="M315.426,217.1l1.146,2.274c.089.177-.12.357-.414.357h-26.64c-.229,0-.419-.113-.433-.257l-.229-2.274c-.016-.158.183-.29.433-.29h25.724A.461.461,0,0,1,315.426,217.1Z" transform="translate(-288.854 -216.909)"/></g><path class="h" d="M319.612,219.907h.689c.137,0,.242-.07.233-.157l-.323-2.954c-.01-.087-.129-.158-.267-.158h-.689c-.137,0-.241.071-.232.158l.323,2.954C319.354,219.837,319.474,219.907,319.612,219.907Z" transform="translate(-256.37 -133.01)"/><g transform="translate(42.562 46.206)"><path class="h" d="M303.549,185.453a.372.372,0,0,1-.36-.276c-2.437-9-7.5-16.4-9.915-17.546a.832.832,0,0,0-.629-.1.373.373,0,1,1-.307-.68,1.474,1.474,0,0,1,1.255.109c2.578,1.219,7.685,8.537,10.24,17.749,1.831-.023,4.656-.252,5.338-.309.853-1.014,7.115-8.84,4.772-17.4a.373.373,0,1,1,.72-.2c2.608,9.53-4.954,18.122-5.031,18.207a.372.372,0,0,1-.246.123C309.35,185.13,305.626,185.453,303.549,185.453Z" transform="translate(-292.118 -166.522)"/><g transform="translate(7.964 7.504)"><path class="h" d="M318.62,193.277c-4.07-7.63-5.735-8.163-6.463-10.616a12.613,12.613,0,0,1,2.321-3.727c-.5-.139-1.556-.35-2.219-.479.075-.334.152-.664.228-.98a6.991,6.991,0,0,0-2.276.1l-.026-.753a9.526,9.526,0,0,0-2.894-.184c.083.346.167.709.25,1.075-.727.14-1.885.372-2.434.524a10.686,10.686,0,0,1,2.28,4.162c-2.192,3.767-10.722,28.009,3.148,29.832S322.69,200.907,318.62,193.277Z" transform="translate(-302.784 -176.571)"/><path class="t" d="M318.62,193.277c-4.07-7.63-5.735-8.163-6.463-10.616a12.613,12.613,0,0,1,2.321-3.727c-.5-.139-1.556-.35-2.219-.479.075-.334.152-.664.228-.98a6.991,6.991,0,0,0-2.276.1l-.026-.753a9.526,9.526,0,0,0-2.894-.184c.083.346.167.709.25,1.075-.727.14-1.885.372-2.434.524a10.686,10.686,0,0,1,2.28,4.162c-2.192,3.767-10.722,28.009,3.148,29.832S322.69,200.907,318.62,193.277Z" transform="translate(-302.784 -176.571)"/><path class="h" d="M308.22,183.355a4.776,4.776,0,0,0-.108,1.166c-.016.28.731.467,1.571.544s4.309.218,4.2-.171.171-.918.187-1.244-1.384-.343-2.552-.3S308.454,182.935,308.22,183.355Z" transform="translate(-304.133 -178.245)"/></g></g><path class="h" d="M297.248,219.907h.689c.137,0,.241-.07.232-.157l-.323-2.954c-.01-.087-.129-.158-.267-.158h-.689c-.137,0-.241.071-.232.158l.323,2.954C296.991,219.837,297.11,219.907,297.248,219.907Z" transform="translate(-250.706 -133.01)"/></g></g></g></svg>